<?xml version="1.0" standalone="no"?>
<!DOCTYPE svg PUBLIC "-//W3C//DTD SVG 20010904//EN"
 "http://www.w3.org/TR/2001/REC-SVG-20010904/DTD/svg10.dtd">
<svg version="1.0" xmlns="http://www.w3.org/2000/svg"
 width="193.000000pt" height="56.000000pt" viewBox="0 0 193.000000 56.000000"
 preserveAspectRatio="xMidYMid meet">

<g transform="translate(0.000000,56.000000) scale(0.100000,-0.100000)"
fill="#000000" stroke="none">
<path d="M235 545 c-46 -16 -84 -58 -87 -95 -4 -76 12 -105 90 -156 106 -69
142 -114 142 -177 0 -53 -28 -71 -114 -75 -59 -3 -83 0 -125 18 -90 39 -124
106 -85 165 24 36 -1 31 -26 -5 -30 -42 -36 -99 -16 -138 35 -67 176 -101 288
-68 78 22 128 78 128 142 0 78 -37 124 -159 198 -57 35 -91 76 -91 109 0 7 11
24 25 37 50 47 195 24 195 -31 0 -11 5 -17 10 -14 6 3 10 24 10 46 0 33 -4 41
-26 49 -36 14 -112 12 -159 -5z"/>
<path d="M1864 452 c-13 -11 -24 -36 -28 -63 -15 -96 -16 -99 -42 -99 -13 0
-24 -4 -24 -10 0 -5 12 -10 26 -10 19 0 24 -4 20 -17 -2 -10 -10 -64 -17 -121
-17 -138 -1 -152 86 -77 45 39 42 58 -4 24 -17 -12 -33 -20 -36 -17 -3 3 0 50
7 104 13 97 14 99 41 102 35 4 35 22 1 22 -24 0 -26 3 -21 28 9 43 20 152 16
152 -2 -1 -14 -9 -25 -18z"/>
<path d="M498 264 c-42 -27 -49 -39 -17 -29 21 7 22 6 13 -56 -4 -35 -8 -86
-8 -114 -1 -47 1 -50 26 -53 15 -2 48 6 73 17 37 16 45 17 45 5 0 -38 62 -21
109 30 29 31 20 34 -17 6 -14 -11 -29 -17 -34 -12 -5 5 -1 57 8 116 8 59 13
110 10 113 -7 7 -73 -26 -87 -43 -6 -8 -1 -10 18 -6 20 4 25 2 21 -10 -3 -8
-9 -45 -13 -81 -8 -71 -25 -93 -83 -111 -34 -11 -37 13 -19 132 20 135 19 138
-45 96z"/>
<path d="M812 264 c-43 -26 -53 -46 -13 -24 19 10 21 8 21 -17 0 -25 -11 -108
-25 -185 -4 -25 -3 -26 24 -17 27 9 29 15 41 102 15 110 20 120 61 137 53 22
59 2 39 -132 -10 -62 -16 -114 -15 -116 1 -1 14 3 28 9 22 10 27 21 37 83 19
123 20 126 50 141 16 8 37 15 46 15 18 0 17 -30 -2 -197 -6 -51 -6 -53 18 -53
14 0 46 16 72 35 54 42 61 56 12 26 -18 -12 -37 -21 -41 -21 -4 0 -4 28 0 63
5 34 9 85 9 112 l1 50 -42 3 c-25 2 -55 -4 -73 -13 -31 -16 -33 -16 -47 4 -18
27 -58 27 -100 1 -33 -20 -33 -20 -33 0 0 27 -16 25 -68 -6z"/>
<path d="M1376 280 c-63 -19 -108 -93 -110 -181 -1 -69 13 -89 66 -89 47 0 92
18 136 55 46 39 32 43 -21 7 -63 -44 -91 -49 -111 -21 -27 40 -20 64 24 84 43
19 120 95 120 118 0 34 -42 45 -104 27z m52 -29 c23 -14 9 -43 -36 -78 -50
-38 -62 -41 -62 -14 0 68 55 120 98 92z"/>
<path d="M1639 281 c-52 -17 -71 -34 -95 -84 -30 -65 -33 -146 -6 -170 32 -29
91 -21 155 19 31 19 57 40 57 46 0 6 -12 2 -27 -7 -80 -52 -94 -58 -119 -47
-19 9 -24 19 -24 46 0 28 5 36 31 46 16 7 50 33 75 57 35 34 45 49 42 71 -2
22 -8 27 -33 29 -16 1 -42 -2 -56 -6z m49 -44 c6 -28 -69 -97 -104 -97 -7 0 2
42 17 82 16 40 80 51 87 15z"/>
</g>
</svg>
